<svg xmlns="http://www.w3.org/2000/svg" viewBox="0 0 808.1 816.08"><g id="Layer_2" data-name="Layer 2"><g id="Layer_2-2" data-name="Layer 2"><path d="M131.39,560.82l13,56.69H149q255.3,0,510.58-.11c10.27,0,21,9,22.57,19.13a23.28,23.28,0,0,1-23,27.27q-266.56,0-533.13,0a23.33,23.33,0,0,1-22.92-19.16c-2.4-12.51-5.74-24.84-8.6-37.27-4.3-18.75-8.36-37.56-12.86-56.27Q70.4,504.44,58.71,457.9c-7.46-29.64-15.22-59.2-22.84-88.79q-11.8-45.83-23.58-91.66Q6.55,255.09.78,232.73c-3.46-13.51,4.91-27,18.47-28.56,7.8-.9,15.6-1.76,23.39-2.69,9-1.07,18-2.27,27-3.28,7.16-.8,14.34-1.33,21.5-2.11s14.25-1.77,21.38-2.59c4.84-.55,9.71-.9,14.55-1.44,7.24-.82,14.48-1.74,21.72-2.57,4.62-.53,9.25-.94,13.87-1.47,7.58-.85,15.15-1.78,22.73-2.61,4.84-.53,9.71-.89,14.55-1.43,7.47-.83,14.92-1.79,22.39-2.6,6.93-.76,13.89-1.35,20.82-2.12,7.14-.78,14.26-1.72,21.39-2.54,4.73-.54,9.48-1,14.21-1.49,7.69-.85,15.37-1.78,23.06-2.61,6.93-.75,13.89-1.34,20.82-2.11,7.14-.79,14.25-1.73,21.39-2.56,4.61-.54,9.25-.95,13.87-1.47,7.58-.85,15.14-1.8,22.72-2.61,7.16-.77,14.34-1.33,21.5-2.11s14.25-1.76,21.38-2.58c4.84-.55,9.71-.91,14.55-1.45,7.25-.81,14.48-1.73,21.73-2.55,4.73-.54,9.47-1,14.2-1.49,7.47-.84,14.92-1.78,22.39-2.61,4.84-.54,9.71-.9,14.55-1.43,7.47-.83,14.92-1.78,22.39-2.6,6.82-.75,13.66-1.36,20.48-2.11,7.25-.8,14.49-1.72,21.74-2.54,4.72-.53,9.47-1,14.2-1.5,7.68-.85,15.37-1.78,23.06-2.61,6.93-.75,13.88-1.41,20.82-2.09,2.65-.26,5.37-.2,7.92-.83a4.8,4.8,0,0,0,2.89-2.92c7.53-28.83,14.91-57.69,22.35-86.53,2.75-10.64,9.61-16.78,20.29-19.51,16.5-4.21,32.86-9,49.28-13.55,14.82-4.13,29.48-9,44.47-12.29C796.09-2.84,807.62,9.73,808.08,22c.46,12.42-8.35,21.49-18.44,24.1-23.51,6.08-46.77,13.1-70.14,19.73-2.75.78-5.58,1.32-8.25,2.31a5,5,0,0,0-2.85,2.64c-4,15-7.74,30-11.59,45-5,19.49-10.18,38.93-14.94,58.47-1.8,7.34-2.75,14.9-3.87,22.39-1.25,8.29-2.31,16.62-3.32,24.94-.8,6.6-1.34,13.22-2.12,19.81s-1.75,13.13-2.55,19.7c-.77,6.26-1.39,12.54-2.15,18.8-1,8.54-2.2,17.08-3.23,25.63-.78,6.48-1.4,13-2.16,19.46-.78,6.69-1.67,13.37-2.48,20.06-.76,6.36-1.45,12.74-2.23,19.11-.81,6.68-1.71,13.36-2.53,20-.76,6.26-1.42,12.53-2.18,18.78-.83,6.8-1.76,13.58-2.57,20.38-.77,6.48-1.38,13-2.14,19.46-.79,6.69-1.69,13.37-2.49,20.06-.77,6.36-1.45,12.74-2.22,19.11-.82,6.68-1.74,13.35-2.54,20-.77,6.37-1.36,12.76-2.19,19.12-1,7.87-1.68,15.84-3.44,23.54-2.19,9.63-11.71,16.13-21.74,16.13H131.39ZM385.14,514.4c.51-9.22,1.07-18.09,1.47-27,.52-11.47.91-22.94,1.36-34.41s.91-22.72,1.35-34.07q.68-17.55,1.35-35.09c.44-11.13.91-22.26,1.34-33.4.46-12.14.88-24.28,1.36-36.43.41-10.46.91-20.92,1.32-31.38.48-11.92,1-23.83,1.35-35.76.3-9.71.42-19.43.72-29.14.09-2.94.52-5.86.82-9l-85,9.49c.42,7,.84,13.44,1.16,19.86.49,9.9.92,19.8,1.35,29.7.46,10.57.89,21.15,1.36,31.72.43,9.9.9,19.8,1.33,29.7.47,10.46.9,20.92,1.36,31.38q.66,15,1.34,30,.67,15.53,1.35,31,.66,15.19,1.34,30.38c.45,10.23.95,20.47,1.33,30.71.31,8.25.43,16.51.72,24.77.08,2.27.49,4.53.75,6.87Zm46.31.12h3.21c17,0,34.09-.07,51.14.06,3.07,0,3.73-1.2,3.88-3.91.28-5.09.84-10.16,1.41-15.22.79-7.14,1.77-14.25,2.56-21.38.76-6.93,1.35-13.89,2.1-20.82.83-7.58,1.77-15.14,2.62-22.72.52-4.62.94-9.25,1.47-13.86.83-7.36,1.76-14.7,2.56-22.06.76-6.93,1.35-13.88,2.11-20.82.81-7.46,1.76-14.91,2.61-22.38.53-4.73.94-9.47,1.48-14.2.82-7.24,1.74-14.48,2.55-21.72.54-4.84.91-9.71,1.45-14.55.82-7.35,1.78-14.69,2.59-22.05.76-6.93,1.35-13.88,2.1-20.81.82-7.58,1.78-15.15,2.62-22.72.73-6.6,1.34-13.21,2.11-19.81.79-6.86,1.7-13.71,2.58-20.75l-80.7,8.85c-.07.5-.16.92-.18,1.35-.46,10-.93,20-1.35,30-.48,11.36-.91,22.72-1.36,34.08s-.9,22.49-1.34,33.74c-.46,11.92-.89,23.84-1.36,35.76-.42,10.91-.9,21.82-1.33,32.73-.47,12.14-.9,24.29-1.36,36.43-.2,5.12-.46,10.24-.66,15.36-.46,12-.95,24.06-1.34,36.1-.3,9.6-.46,19.21-.69,28.81,0,.45,0,.9-.05,1.34C432.41,497.6,431.94,505.8,431.45,514.52Zm-152-.14c-.42-6.76-.9-13.18-1.21-19.6-.51-10.24-.92-20.48-1.36-30.71-.46-10.58-.89-21.16-1.36-31.73-.43-9.79-.9-19.58-1.33-29.37-.47-10.57-.9-21.15-1.36-31.73-.43-9.9-.9-19.8-1.34-29.7-.46-10.58-.89-21.15-1.35-31.73-.43-9.79-.91-19.58-1.34-29.37q-.7-16.53-1.34-33.07c-.29-7.58-.49-15.17-.76-22.76a5.51,5.51,0,0,0-.55-1.31l-83.47,9.25Q203,373.7,223.25,514.38Zm256.43-.15H593c.33-2.49.67-4.68.92-6.88.71-6.37,1.32-12.76,2.1-19.13,1-8.32,2.27-16.62,3.27-24.94s1.77-16.95,2.78-25.4,2.27-16.62,3.27-24.95c.81-6.7,1.31-13.43,2.12-20.13,1-8.33,2.27-16.62,3.27-24.95s1.74-16.94,2.77-25.39c1.23-10.08,2.74-20.13,4-30.21,1.25-10.31,2.21-20.67,3.45-31s2.73-20.57,4-30.87,2.2-20.67,3.44-31c1.43-12,3-24,4.62-36.52l-61.22,6.63c-.27,2.57-.55,5.08-.81,7.6-.48,4.62-.91,9.25-1.45,13.87-.82,7.13-1.78,14.24-2.57,21.38-.77,6.93-1.32,13.88-2.11,20.81-1,9-2.27,18-3.27,27-.8,7.26-1.27,14.56-2.09,21.82-1.24,11-2.68,21.93-4,32.9-1.17,10-2.26,20-3.37,30q-2,18.3-4.05,36.59-1.68,15.33-3.36,30.67-2,18.3-4,36.59c-1.34,12.09-2.71,24.17-4,36.26C536.3,508,536.15,511.08,535.91,514.23ZM136.61,237.58c-2.11.28-4.05.59-6,.78-7.05.71-14.12,1.29-21.16,2.09-9,1-18,2.29-27,3.28-9.24,1-18.51,1.85-27.77,2.71-2.07.19-2.38,1.42-2,3,.9,3.74,1.9,7.46,2.87,11.18q12.28,47.24,24.56,94.46,8.77,33.84,17.46,67.7,11.25,44.1,22.33,88.24c.61,2.45,1.67,3.58,4.54,3.55,16.27-.17,32.53-.08,48.8-.09,1.05,0,2.1-.12,3.17-.18C163.17,422.05,149.93,330.13,136.61,237.58Z"/><path d="M179.29,766.39c-1.1-27.8,22.8-50.95,51.24-49.94a49.54,49.54,0,0,1,48.14,50c.06,26.64-21.66,51-53,49.58C201.54,814.89,178.28,793.88,179.29,766.39Z"/><path d="M560.24,816c-27.25.5-50.68-22.32-49.79-51.54a49.83,49.83,0,1,1,99.56,4.4A49.3,49.3,0,0,1,560.24,816Z"/></g></g></svg>